<svg width="50" height="56" viewBox="0 0 50 56" fill="none" xmlns="http://www.w3.org/2000/svg">
<path d="M24.5833 21.3333H29.5V13.3333H36.875V8H29.5V0H24.5833V8H17.2083V13.3333H24.5833V21.3333ZM14.75 45.3333C12.0458 45.3333 9.85792 47.7333 9.85792 50.6667C9.85792 53.6 12.0458 56 14.75 56C17.4542 56 19.6667 53.6 19.6667 50.6667C19.6667 47.7333 17.4542 45.3333 14.75 45.3333ZM39.3333 45.3333C36.6292 45.3333 34.4412 47.7333 34.4412 50.6667C34.4412 53.6 36.6292 56 39.3333 56C42.0375 56 44.25 53.6 44.25 50.6667C44.25 47.7333 42.0375 45.3333 39.3333 45.3333ZM17.4542 32H35.7687C37.6125 32 39.235 30.9067 40.0708 29.2533L49.56 10.56L45.2579 8L35.7687 26.6667H18.5112L8.03875 2.66667H0V8H4.91667L13.7667 28.24L10.4479 34.7467C8.65333 38.32 11.0133 42.6667 14.75 42.6667H44.25V37.3333H14.75L17.4542 32Z" fill="black"/>
</svg>
