<svg width="50" height="54" viewBox="0 0 50 54" fill="none" xmlns="http://www.w3.org/2000/svg">
<path d="M36.2271 29.6667C38.0708 29.6667 39.6933 28.5734 40.5291 26.92L49.33 9.61337C49.5372 9.20917 49.6434 8.7533 49.6383 8.29085C49.6332 7.82841 49.5169 7.37543 49.3008 6.97674C49.0848 6.57804 48.7765 6.24746 48.4065 6.01769C48.0365 5.78792 47.6176 5.66694 47.1912 5.66671H10.8079L8.49706 0.333374H0.458313V5.66671H5.37498L14.225 25.9067L10.9062 32.4134C9.11165 35.9867 11.4716 40.3334 15.2083 40.3334H44.7083V35H15.2083L17.9125 29.6667H36.2271ZM13.1433 11H43.0121L36.2271 24.3334H18.9696L13.1433 11ZM15.2083 43C12.5041 43 10.3162 45.4 10.3162 48.3334C10.3162 51.2667 12.5041 53.6667 15.2083 53.6667C17.9125 53.6667 20.125 51.2667 20.125 48.3334C20.125 45.4 17.9125 43 15.2083 43ZM39.7916 43C37.0875 43 34.8996 45.4 34.8996 48.3334C34.8996 51.2667 37.0875 53.6667 39.7916 53.6667C42.4958 53.6667 44.7083 51.2667 44.7083 48.3334C44.7083 45.4 42.4958 43 39.7916 43Z" fill="black"/>
</svg>
