<svg width="45" height="54" viewBox="0 0 45 54" fill="none" xmlns="http://www.w3.org/2000/svg">
<path d="M33.925 51H11.075C10.594 50.9864 10.12 50.8591 9.67995 50.6256C9.23993 50.392 8.84256 50.0567 8.51057 49.6388C8.17857 49.2209 7.91845 48.7286 7.74506 48.1901C7.57166 47.6515 7.4884 47.0772 7.50003 46.5V16.845H10V46.5C9.9881 46.6833 10.0065 46.8676 10.0541 47.0423C10.1018 47.2171 10.1777 47.3788 10.2776 47.5182C10.3775 47.6576 10.4994 47.7719 10.6362 47.8546C10.7731 47.9373 10.9222 47.9867 11.075 48H33.925C34.0779 47.9867 34.227 47.9373 34.3638 47.8546C34.5007 47.7719 34.6226 47.6576 34.7225 47.5182C34.8224 47.3788 34.8983 47.2171 34.9459 47.0423C34.9936 46.8676 35.012 46.6833 35 46.5V16.845H37.5V46.5C37.5117 47.0772 37.4284 47.6515 37.255 48.1901C37.0816 48.7286 36.8215 49.2209 36.4895 49.6388C36.1575 50.0567 35.7601 50.392 35.3201 50.6256C34.8801 50.8591 34.406 50.9864 33.925 51Z" fill="black"/>
<path d="M38.475 13.5H6.25C5.91848 13.5 5.60054 13.342 5.36612 13.0607C5.1317 12.7794 5 12.3978 5 12C5 11.6022 5.1317 11.2206 5.36612 10.9393C5.60054 10.658 5.91848 10.5 6.25 10.5H38.475C38.8065 10.5 39.1245 10.658 39.3589 10.9393C39.5933 11.2206 39.725 11.6022 39.725 12C39.725 12.3978 39.5933 12.7794 39.3589 13.0607C39.1245 13.342 38.8065 13.5 38.475 13.5Z" fill="black"/>
<path d="M26.25 19.5H28.75V42H26.25V19.5Z" fill="black"/>
<path d="M16.25 19.5H18.75V42H16.25V19.5Z" fill="black"/>
<path d="M28.75 8.79H26.375V6H18.625V8.79H16.25V6C16.2492 5.22967 16.4954 4.48849 16.9375 3.93C17.3796 3.37151 17.9839 3.03852 18.625 3H26.375C27.0161 3.03852 27.6204 3.37151 28.0625 3.93C28.5046 4.48849 28.7508 5.22967 28.75 6V8.79Z" fill="black"/>
</svg>
